<svg width="67" height="67" viewBox="0 0 67 67" fill="none" xmlns="http://www.w3.org/2000/svg">
<path class='fb' d="M29.8568 24.9491V28.7933H27.0428V33.4916H29.8568V47.4583H35.6412V33.4916H39.5216C39.5216 33.4916 39.8873 31.2388 40.0632 28.7737H35.6635V25.5633C35.6635 25.0803 36.2944 24.4355 36.9198 24.4355H40.0688V19.5417H35.7836C29.7145 19.5417 29.8568 24.2456 29.8568 24.9491Z" fill="white"/>
<path d="M16.75 11.1667C15.2692 11.1667 13.849 11.7549 12.802 12.802C11.7549 13.8491 11.1666 15.2692 11.1666 16.75V50.25C11.1666 51.7308 11.7549 53.1509 12.802 54.198C13.849 55.2451 15.2692 55.8333 16.75 55.8333H50.25C51.7308 55.8333 53.1509 55.2451 54.198 54.198C55.2451 53.1509 55.8333 51.7308 55.8333 50.25V16.75C55.8333 15.2692 55.2451 13.8491 54.198 12.802C53.1509 11.7549 51.7308 11.1667 50.25 11.1667H16.75ZM16.75 5.58333H50.25C53.2116 5.58333 56.0519 6.75982 58.146 8.85397C60.2402 10.9481 61.4167 13.7884 61.4167 16.75V50.25C61.4167 53.2116 60.2402 56.0518 58.146 58.146C56.0519 60.2402 53.2116 61.4166 50.25 61.4166H16.75C13.7884 61.4166 10.9481 60.2402 8.85396 58.146C6.7598 56.0518 5.58331 53.2116 5.58331 50.25V16.75C5.58331 13.7884 6.7598 10.9481 8.85396 8.85397C10.9481 6.75982 13.7884 5.58333 16.75 5.58333Z" fill="white"/>
</svg>
