<svg width="67" height="67" viewBox="0 0 67 67" fill="none" xmlns="http://www.w3.org/2000/svg">
<path class='gt' d="M28.4192 47.4807C28.7542 47.4807 29.0082 47.4695 29.1757 47.4472C29.3722 47.4074 29.5494 47.3021 29.6782 47.1485C29.8457 46.9726 29.9295 46.7185 29.9295 46.3835L29.9183 44.8286C29.9099 43.8375 29.9071 43.0503 29.9071 42.4724L29.3823 42.5645C28.9623 42.6307 28.537 42.6568 28.1121 42.6427C27.5782 42.6333 27.046 42.58 26.5208 42.4836C25.9635 42.3797 25.439 42.1442 24.991 41.7968C24.5213 41.4415 24.1708 40.9518 23.986 40.3926L23.7571 39.865C23.5645 39.4495 23.3227 39.0586 23.0368 38.7009C22.7802 38.334 22.4381 38.0351 22.0402 37.8299L21.8811 37.7182C21.7715 37.6375 21.6721 37.5437 21.5852 37.439C21.5008 37.3439 21.4311 37.2366 21.3786 37.1208C21.3339 37.0147 21.3702 36.9254 21.4903 36.8584C21.7009 36.7737 21.9282 36.7384 22.1547 36.7551L22.6125 36.8249C22.9196 36.8835 23.2965 37.0678 23.7459 37.372C24.1926 37.6791 24.5639 38.0728 24.8542 38.5613C25.206 39.1866 25.6275 39.664 26.1244 39.9906C26.5631 40.3 27.0841 40.4711 27.6208 40.482C28.1233 40.482 28.5588 40.4457 28.9245 40.3703C29.2804 40.2965 29.6263 40.1803 29.9546 40.0241C30.0914 39.0052 30.4627 38.2179 31.0713 37.6708C30.2812 37.5926 29.4982 37.4545 28.7291 37.2576C27.9781 37.0506 27.2559 36.7505 26.5795 36.3643C25.871 35.9799 25.245 35.4601 24.737 34.8344C24.2512 34.2231 23.852 33.4246 23.5366 32.4336C23.2076 31.3203 23.0504 30.1633 23.0703 29.0026C23.0703 27.1601 23.6733 25.5884 24.8766 24.2931C24.3126 22.9056 24.3657 21.3507 25.0357 19.6282C25.4796 19.4886 26.1356 19.5919 27.0038 19.9353C27.872 20.2787 28.5113 20.5718 28.9133 20.8175C29.3181 21.0604 29.6391 21.2641 29.8848 21.4316C31.3146 21.0345 32.7922 20.8354 34.2761 20.8398C35.7836 20.8398 37.2492 21.0352 38.6674 21.4344L39.5328 20.8845C40.1302 20.5216 40.8309 20.1838 41.6377 19.8795C42.4473 19.5724 43.0643 19.4886 43.4914 19.6282C44.1781 21.3507 44.2396 22.9056 43.6729 24.2903C44.8789 25.5884 45.4818 27.1573 45.4818 29.0026C45.4818 30.298 45.3255 31.4453 45.0129 32.4448C44.7002 33.4442 44.2954 34.2426 43.8013 34.8456C43.2849 35.4651 42.6559 35.9814 41.9476 36.3671C41.2712 36.7534 40.549 37.0535 39.798 37.2604C39.0279 37.4565 38.244 37.5937 37.453 37.6708C38.2458 38.3547 38.6423 39.4379 38.6423 40.9175V46.3808C38.6423 46.6404 38.6814 46.8498 38.7567 47.0117C38.7922 47.0888 38.8429 47.158 38.9057 47.2151C38.9685 47.2721 39.0423 47.316 39.1224 47.3439C39.2899 47.4025 39.4407 47.4416 39.5691 47.4555C39.7003 47.4723 39.8846 47.4807 40.1274 47.4807H28.422H28.4192Z" fill="white"/>
<path  d="M16.75 11.1667C15.2692 11.1667 13.849 11.7549 12.802 12.802C11.7549 13.8491 11.1666 15.2692 11.1666 16.75V50.25C11.1666 51.7308 11.7549 53.1509 12.802 54.198C13.849 55.2451 15.2692 55.8333 16.75 55.8333H50.25C51.7308 55.8333 53.1509 55.2451 54.198 54.198C55.2451 53.1509 55.8333 51.7308 55.8333 50.25V16.75C55.8333 15.2692 55.2451 13.8491 54.198 12.802C53.1509 11.7549 51.7308 11.1667 50.25 11.1667H16.75ZM16.75 5.58334H50.25C53.2116 5.58334 56.0518 6.75982 58.146 8.85398C60.2402 10.9481 61.4166 13.7884 61.4166 16.75V50.25C61.4166 53.2116 60.2402 56.0518 58.146 58.146C56.0518 60.2402 53.2116 61.4166 50.25 61.4166H16.75C13.7884 61.4166 10.9481 60.2402 8.85395 58.146C6.7598 56.0518 5.58331 53.2116 5.58331 50.25V16.75C5.58331 13.7884 6.7598 10.9481 8.85395 8.85398C10.9481 6.75982 13.7884 5.58334 16.75 5.58334Z" fill="white"/>
</svg>
