<svg width="67" height="67" viewBox="0 0 67 67" fill="none" xmlns="http://www.w3.org/2000/svg">
<path class='li' d="M52.6312 11.1667H15.3787C11.9497 11.1667 9.16998 13.8905 9.16998 17.2504V53.7529C9.16998 57.1129 11.9497 59.8367 15.3787 59.8367H52.6312C56.0602 59.8367 58.84 57.1129 58.84 53.7529V17.2504C58.84 13.8905 56.0602 11.1667 52.6312 11.1667Z" stroke="white" stroke-width="5" stroke-linecap="round" stroke-linejoin="round"/>
<path class='li' d="M21.5875 32.4598V47.6692" stroke="white" stroke-width="5" stroke-linecap="round" stroke-linejoin="round"/>
<path class='li' d="M21.5875 23.3342V23.3619" stroke="white" stroke-width="5" stroke-linecap="round" stroke-linejoin="round"/>
<path class='li' d="M34.0049 47.6692V32.4598" stroke="white" stroke-width="5" stroke-linecap="round" stroke-linejoin="round"/>
<path class='li' d="M46.4225 47.6692V38.5436C46.4225 36.9301 45.7683 35.3826 44.6039 34.2417C43.4396 33.1008 41.8604 32.4598 40.2137 32.4598C38.567 32.4598 36.9878 33.1008 35.8234 34.2417C34.6591 35.3826 34.0049 36.9301 34.0049 38.5436" stroke="white" stroke-width="5" stroke-linecap="round" stroke-linejoin="round"/>
</svg>
