<svg width="39" height="39" viewBox="0 0 39 39" fill="none" xmlns="http://www.w3.org/2000/svg">
<path d="M19.3419 9.71893C18.3777 9.71893 17.4351 10.0048 16.6335 10.5405C15.8318 11.0762 15.2069 11.8376 14.8379 12.7283C14.469 13.6191 14.3724 14.5993 14.5605 15.545C14.7486 16.4906 15.2129 17.3593 15.8947 18.0411C16.5765 18.7229 17.4451 19.1872 18.3908 19.3753C19.3365 19.5634 20.3167 19.4668 21.2074 19.0978C22.0982 18.7289 22.8596 18.104 23.3953 17.3023C23.9309 16.5006 24.2169 15.5581 24.2169 14.5939C24.2154 13.3014 23.7013 12.0623 22.7874 11.1484C21.8735 10.2345 20.6343 9.7204 19.3419 9.71893V9.71893ZM19.3419 17.0314C18.8598 17.0314 18.3885 16.8885 17.9877 16.6206C17.5868 16.3528 17.2744 15.9721 17.0899 15.5267C16.9054 15.0813 16.8571 14.5912 16.9512 14.1184C17.0452 13.6456 17.2774 13.2112 17.6183 12.8704C17.9592 12.5295 18.3935 12.2973 18.8663 12.2033C19.3392 12.1092 19.8293 12.1575 20.2746 12.342C20.72 12.5265 21.1007 12.8389 21.3686 13.2397C21.6364 13.6406 21.7794 14.1118 21.7794 14.5939C21.7786 15.2402 21.5216 15.8597 21.0646 16.3167C20.6076 16.7736 19.9881 17.0307 19.3419 17.0314V17.0314Z" fill="white"/>
<path d="M28.7096 5.21891C26.3935 2.90332 23.3016 1.52777 20.0309 1.35773C16.7601 1.18769 13.5424 2.23523 10.9985 4.29817C8.45474 6.3611 6.76525 9.29319 6.25616 12.5285C5.74706 15.7639 6.45445 19.0731 8.24179 21.8176L17.4515 35.9561C17.6565 36.2707 17.9367 36.5292 18.2668 36.7081C18.5969 36.887 18.9664 36.9807 19.3419 36.9807C19.7174 36.9807 20.0869 36.887 20.417 36.7081C20.7471 36.5292 21.0273 36.2707 21.2323 35.9561L30.4423 21.8176C32.1008 19.2717 32.8337 16.2331 32.5182 13.2111C32.2028 10.1891 30.8581 7.3674 28.7096 5.21891V5.21891ZM28.4 20.4871L19.3419 34.3923L10.2838 20.4871C7.51115 16.2307 8.10583 10.5346 11.6978 6.94245C12.7016 5.93859 13.8934 5.14228 15.2049 4.599C16.5165 4.05571 17.9223 3.77608 19.3419 3.77608C20.7616 3.77608 22.1673 4.05571 23.4789 4.599C24.7905 5.14228 25.9823 5.93859 26.9861 6.94245C30.5781 10.5346 31.1726 16.2307 28.4 20.4871Z" fill="white"/>
</svg>
