<svg width="58" height="72" viewBox="0 0 58 72" fill="none" xmlns="http://www.w3.org/2000/svg">
<path d="M52.8912 13.3787C52.6861 12.9883 52.3782 12.6613 52.0009 12.433C51.6235 12.2047 51.191 12.0838 50.75 12.0833H7.25C6.80979 12.0852 6.3784 12.2069 6.00223 12.4356C5.62606 12.6643 5.31933 12.9911 5.11504 13.3811C4.91075 13.771 4.81662 14.2093 4.84278 14.6487C4.86894 15.0881 5.01439 15.5121 5.2635 15.8751L27.0135 47.2918C27.2352 47.6138 27.5319 47.877 27.8779 48.0589C28.224 48.2408 28.6091 48.3358 29 48.3358C29.3909 48.3358 29.776 48.2408 30.1221 48.0589C30.4681 47.877 30.7648 47.6138 30.9865 47.2918L52.7365 15.8751C52.9881 15.5129 53.1355 15.0886 53.1627 14.6485C53.19 14.2084 53.0961 13.7692 52.8912 13.3787ZM29 41.6706L11.861 16.9167H46.139L29 41.6706Z" fill="white"/>
<path d="M52.8912 27.3787C52.6861 26.9883 52.3782 26.6613 52.0009 26.433C51.6235 26.2047 51.191 26.0838 50.75 26.0833H7.25C6.80979 26.0852 6.3784 26.2069 6.00223 26.4356C5.62606 26.6643 5.31933 26.9911 5.11504 27.3811C4.91075 27.771 4.81662 28.2093 4.84278 28.6487C4.86894 29.0881 5.01439 29.5121 5.2635 29.8751L27.0135 61.2918C27.2352 61.6138 27.5319 61.877 27.8779 62.0589C28.224 62.2408 28.6091 62.3358 29 62.3358C29.3909 62.3358 29.776 62.2408 30.1221 62.0589C30.4681 61.877 30.7648 61.6138 30.9865 61.2918L52.7365 29.8751C52.9881 29.5129 53.1355 29.0886 53.1627 28.6485C53.19 28.2084 53.0961 27.7692 52.8912 27.3787ZM29 55.6706L11.861 30.9167H46.139L29 55.6706Z" fill="white"/>
</svg>
