<svg width="58" height="72" viewBox="0 0 58 72" fill="none" xmlns="http://www.w3.org/2000/svg">
<path d="M52.8911 13.3787C52.6859 12.9883 52.3781 12.6613 52.0008 12.433C51.6234 12.2047 51.1909 12.0838 50.7499 12.0833H7.24988C6.80967 12.0852 6.37828 12.2069 6.00211 12.4356C5.62593 12.6643 5.31921 12.9911 5.11492 13.3811C4.91063 13.771 4.8165 14.2093 4.84266 14.6487C4.86882 15.0881 5.01427 15.5121 5.26338 15.8751L27.0134 47.2918C27.2351 47.6138 27.5317 47.877 27.8778 48.0589C28.2239 48.2408 28.6089 48.3358 28.9999 48.3358C29.3908 48.3358 29.7759 48.2408 30.122 48.0589C30.468 47.877 30.7647 47.6138 30.9864 47.2918L52.7364 15.8751C52.9879 15.5129 53.1354 15.0886 53.1626 14.6485C53.1899 14.2084 53.096 13.7692 52.8911 13.3787ZM28.9999 41.6706L11.8609 16.9167H46.1389L28.9999 41.6706Z" fill="rgba(0, 0, 0, 0.6)"/>
<path d="M52.8911 27.3787C52.6859 26.9883 52.3781 26.6613 52.0008 26.433C51.6234 26.2047 51.1909 26.0838 50.7499 26.0833H7.24988C6.80967 26.0852 6.37828 26.2069 6.00211 26.4356C5.62593 26.6643 5.31921 26.9911 5.11492 27.3811C4.91063 27.771 4.8165 28.2093 4.84266 28.6487C4.86882 29.0881 5.01427 29.5121 5.26338 29.8751L27.0134 61.2918C27.2351 61.6138 27.5317 61.877 27.8778 62.0589C28.2239 62.2408 28.6089 62.3358 28.9999 62.3358C29.3908 62.3358 29.7759 62.2408 30.122 62.0589C30.468 61.877 30.7647 61.6138 30.9864 61.2918L52.7364 29.8751C52.9879 29.5129 53.1354 29.0886 53.1626 28.6485C53.1899 28.2084 53.096 27.7692 52.8911 27.3787ZM28.9999 55.6706L11.8609 30.9167H46.1389L28.9999 55.6706Z" fill="rgba(0, 0, 0, 0.6)"/>
</svg>
