<svg width="59" height="78" viewBox="0 0 59 78" fill="none" xmlns="http://www.w3.org/2000/svg">
<path class='sicon' d="M48.75 0H9.75C7.16414 0 4.68419 1.02723 2.85571 2.85571C1.02723 4.68419 0 7.16414 0 9.75V68.25C0 70.8359 1.02723 73.3158 2.85571 75.1443C4.68419 76.9728 7.16414 78 9.75 78H48.75C51.3359 78 53.8158 76.9728 55.6443 75.1443C57.4728 73.3158 58.5 70.8359 58.5 68.25V9.75C58.5 7.16414 57.4728 4.68419 55.6443 2.85571C53.8158 1.02723 51.3359 0 48.75 0V0ZM26.8125 32.6966L21.2258 38.2883C20.7681 38.7459 20.1473 39.0031 19.5 39.0031C18.8527 39.0031 18.2319 38.7459 17.7742 38.2883C17.3166 37.8306 17.0594 37.2098 17.0594 36.5625C17.0594 35.9152 17.3166 35.2944 17.7742 34.8367L27.5242 25.0867C27.7507 24.8598 28.0197 24.6797 28.3158 24.5568C28.6119 24.4339 28.9294 24.3706 29.25 24.3706C29.5706 24.3706 29.8881 24.4339 30.1842 24.5568C30.4803 24.6797 30.7493 24.8598 30.9758 25.0867L40.7258 34.8367C40.9524 35.0634 41.1322 35.3324 41.2548 35.6285C41.3775 35.9246 41.4406 36.242 41.4406 36.5625C41.4406 36.883 41.3775 37.2004 41.2548 37.4965C41.1322 37.7926 40.9524 38.0616 40.7258 38.2883C40.4991 38.5149 40.2301 38.6947 39.934 38.8173C39.6379 38.94 39.3205 39.0031 39 39.0031C38.6795 39.0031 38.3621 38.94 38.066 38.8173C37.7699 38.6947 37.5009 38.5149 37.2742 38.2883L31.6875 32.6966V51.1875C31.6875 51.834 31.4307 52.454 30.9736 52.9111C30.5165 53.3682 29.8965 53.625 29.25 53.625C28.6035 53.625 27.9835 53.3682 27.5264 52.9111C27.0693 52.454 26.8125 51.834 26.8125 51.1875V32.6966Z" fill="rgba(139, 128, 156, 1)"/>
</svg>
