<svg width="54" height="54" viewBox="0 0 54 54" fill="none" xmlns="http://www.w3.org/2000/svg">
<path d="M27 3C22.2533 3 17.6131 4.40758 13.6663 7.04473C9.71955 9.68188 6.64341 13.4302 4.8269 17.8156C3.0104 22.201 2.53512 27.0266 3.46116 31.6822C4.38721 36.3377 6.67299 40.6141 10.0294 43.9706C13.3859 47.327 17.6623 49.6128 22.3178 50.5388C26.9734 51.4649 31.799 50.9896 36.1844 49.1731C40.5698 47.3566 44.3181 44.2805 46.9553 40.3337C49.5924 36.3869 51 31.7468 51 27C51 20.6348 48.4715 14.5303 43.9706 10.0294C39.4697 5.52856 33.3652 3 27 3V3ZM27 48C22.8466 48 18.7865 46.7684 15.333 44.4609C11.8796 42.1534 9.18798 38.8736 7.59854 35.0364C6.0091 31.1991 5.59323 26.9767 6.40352 22.9031C7.21381 18.8295 9.21387 15.0877 12.1508 12.1508C15.0877 9.21385 18.8295 7.2138 22.9031 6.40351C26.9767 5.59322 31.1991 6.00909 35.0364 7.59853C38.8736 9.18797 42.1534 11.8796 44.4609 15.333C46.7684 18.7865 48 22.8466 48 27C48 32.5695 45.7875 37.911 41.8493 41.8492C37.911 45.7875 32.5696 48 27 48Z" fill="#3F3849"/>
<path d="M42 18.1501C41.719 17.8707 41.3388 17.7139 40.9425 17.7139C40.5462 17.7139 40.1661 17.8707 39.885 18.1501L23.235 34.7251L14.235 25.7251C13.9605 25.4287 13.5795 25.2535 13.1759 25.238C12.7722 25.2225 12.3789 25.3681 12.0825 25.6426C11.7861 25.9171 11.611 26.298 11.5955 26.7017C11.58 27.1054 11.7255 27.4987 12 27.7951L23.235 39L42 20.2801C42.1406 20.1406 42.2522 19.9747 42.3284 19.7919C42.4045 19.6091 42.4437 19.4131 42.4437 19.2151C42.4437 19.017 42.4045 18.821 42.3284 18.6382C42.2522 18.4554 42.1406 18.2895 42 18.1501Z" fill="#3F3849"/>
</svg>
