<svg width="67" height="67" viewBox="0 0 67 67" fill="none" xmlns="http://www.w3.org/2000/svg">
<path class='tw' d="M47.4584 24.977C46.431 25.4237 45.3283 25.7308 44.1698 25.8648C45.3534 25.1669 46.2579 24.0614 46.6879 22.7465C45.5599 23.4039 44.3292 23.8663 43.0475 24.1144C42.5084 23.5493 41.8598 23.1 41.1413 22.7937C40.4228 22.4875 39.6494 22.3309 38.8684 22.3333C35.7054 22.3333 33.1427 24.8598 33.1427 27.9725C33.1427 28.4136 33.1929 28.8435 33.2906 29.2567C31.0219 29.1489 28.8006 28.5695 26.7683 27.5553C24.7361 26.5411 22.9375 25.1144 21.4875 23.3663C20.9782 24.2236 20.71 25.2026 20.7114 26.1998C20.7114 28.154 21.7248 29.8848 23.2602 30.8926C22.3513 30.8641 21.462 30.6221 20.6639 30.1863V30.2561C20.6726 31.5667 21.1352 32.8337 21.973 33.8416C22.8108 34.8494 23.9721 35.5357 25.259 35.7836C24.4141 36.007 23.5301 36.0394 22.6711 35.8785C23.0456 37.006 23.7618 37.9889 24.7203 38.6908C25.6788 39.3926 26.8321 39.7787 28.02 39.7952C25.982 41.3657 23.4797 42.2142 20.9068 42.2072C20.4462 42.2072 19.9911 42.1793 19.5417 42.129C22.1672 43.7909 25.2115 44.6711 28.3187 44.6667C38.8544 44.6667 44.6136 36.0739 44.6136 28.6202L44.5941 27.8888C45.7172 27.0995 46.6877 26.1129 47.4584 24.977Z" fill="white"/>
<path  d="M16.75 11.1667C15.2692 11.1667 13.849 11.7549 12.802 12.802C11.7549 13.8491 11.1666 15.2692 11.1666 16.75V50.25C11.1666 51.7308 11.7549 53.151 12.802 54.198C13.849 55.2451 15.2692 55.8334 16.75 55.8334H50.25C51.7308 55.8334 53.1509 55.2451 54.198 54.198C55.2451 53.151 55.8333 51.7308 55.8333 50.25V16.75C55.8333 15.2692 55.2451 13.8491 54.198 12.802C53.1509 11.7549 51.7308 11.1667 50.25 11.1667H16.75ZM16.75 5.58334H50.25C53.2116 5.58334 56.0519 6.75983 58.146 8.85399C60.2402 10.9481 61.4167 13.7884 61.4167 16.75V50.25C61.4167 53.2116 60.2402 56.0519 58.146 58.146C56.0519 60.2402 53.2116 61.4167 50.25 61.4167H16.75C13.7884 61.4167 10.9481 60.2402 8.85395 58.146C6.7598 56.0519 5.58331 53.2116 5.58331 50.25V16.75C5.58331 13.7884 6.7598 10.9481 8.85395 8.85399C10.9481 6.75983 13.7884 5.58334 16.75 5.58334Z" fill="white"/>
</svg>
